<!-- Generated by IcoMoon.io -->
<svg version="1.1" xmlns="http://www.w3.org/2000/svg" width="170" height="32" viewBox="0 0 170 32">
<title>Path-1-Copy</title>
<path fill="#00bff3" d="M0.429 4.281c3.118 1.541 6.219 3.017 9.305 4.427l1.596-3.493c-3.050-1.394-6.116-2.852-9.199-4.377l-1.702 3.442zM19.168 12.835c3.211 1.341 6.405 2.61 9.58 3.806l1.353-3.594c-3.133-1.18-6.284-2.431-9.454-3.755l-1.48 3.543zM38.47 20.092c3.304 1.101 6.589 2.122 9.854 3.062l1.062-3.69c-3.214-0.925-6.448-1.93-9.702-3.015l-1.214 3.643zM58.332 25.797c3.388 0.813 6.754 1.537 10.099 2.172l0.716-3.773c-3.284-0.623-6.59-1.335-9.919-2.133l-0.896 3.734zM78.63 29.638c3.451 0.473 6.879 0.849 10.283 1.127l0.313-3.827c-3.334-0.272-6.692-0.641-10.074-1.104l-0.522 3.804zM99.269 31.312c3.477 0.082 6.929 0.059 10.354-0.069l-0.143-3.837c-3.348 0.125-6.721 0.147-10.121 0.068l-0.090 3.839zM120.010 30.526c3.451-0.349 6.875-0.808 10.272-1.377l-0.634-3.787c-3.315 0.555-6.657 1.003-10.025 1.344l0.387 3.82zM140.391 27.115c3.363-0.793 6.698-1.697 10.006-2.711l-1.126-3.671c-3.227 0.99-6.48 1.872-9.761 2.645l0.881 3.738zM160.222 21.031c3.215-1.222 6.403-2.553 9.563-3.992l-1.591-3.495c-3.086 1.405-6.198 2.704-9.337 3.898l1.365 3.589z"></path>
</svg>
