<!-- Generated by IcoMoon.io -->
<svg version="1.1" xmlns="http://www.w3.org/2000/svg" width="140" height="32" viewBox="0 0 140 32">
<title>Path-3-Copy</title>
<path fill="#00bff3" d="M1.982 31.179c2.341-1.633 4.692-3.193 7.051-4.681l-1.707-2.707c-2.401 1.514-4.793 3.101-7.175 4.763l1.831 2.625zM16.296 22.166c2.48-1.396 4.969-2.712 7.468-3.949l-1.42-2.868c-2.55 1.262-5.089 2.605-7.618 4.029l1.57 2.789zM31.437 14.68c2.608-1.114 5.227-2.142 7.855-3.086l-1.081-3.012c-2.688 0.965-5.365 2.016-8.031 3.155l1.257 2.943zM47.311 8.989c2.711-0.789 5.433-1.489 8.165-2.101l-0.699-3.123c-2.799 0.626-5.586 1.343-8.361 2.151l0.894 3.072zM63.781 5.309c2.778-0.436 5.567-0.781 8.368-1.036l-0.29-3.187c-2.87 0.261-5.727 0.615-8.574 1.061l0.496 3.161zM80.595 3.779c2.799-0.074 5.609-0.058 8.431 0.046l0.118-3.198c-2.889-0.106-5.766-0.122-8.632-0.047l0.084 3.199zM97.4 4.39c2.78 0.272 5.57 0.63 8.372 1.072l0.499-3.161c-2.863-0.452-5.716-0.817-8.558-1.096l-0.312 3.185zM114.086 7.016c2.726 0.588 5.462 1.255 8.208 2.001l0.839-3.088c-2.8-0.761-5.591-1.441-8.372-2.041l-0.675 3.128zM130.419 11.445c2.55 0.831 5.109 1.729 7.677 2.695l1.126-2.995c-2.612-0.982-5.216-1.896-7.812-2.742l-0.991 3.043z"></path>
</svg>
